<svg id="Layer_1" data-name="Layer 1" xmlns="http://www.w3.org/2000/svg" viewBox="0 0 151.58 41.11"><defs><style>.cls-1,.cls-2{fill:#fff;}.cls-1{fill-rule:evenodd;}</style></defs><title>td-logo</title><path class="cls-1" d="M105.87,26c0-3.77,3.27-7.79,3.14-8.47-.15-1.62-2.19-1.3-5.21-.71-4.24.63-10.43,8.38-13.74,9.18,0-5,5.72-9.5,1.69-9.74a13.75,13.75,0,0,0-5.4,1.07c-4.27,2.06-9.58,8.38-5.13,9.63,2.26.63,4.66-1.64,6.35-2.77.2,2.18.71,3.34,2.89,3.6,2.35.28,2.77-1.58,4.6-2.19,1.59.67,1.45,2.29,4.35,1.14,1.68-.68,2.4-1.68,4-2.58.87,1.5,1.11,4.31,3.66,3.68,1.79-.44,3.41-2.23,4.88-3.23,0,2-1.09,4.44,1.43,4.63,1.2-.88,3.16-8.92,9.07-10.73-.12,6-4.61,6.79-1.08,9.69,1.09-1.19,2.36-3.16,3.7-4.6.76-.9,3.57-3.39,4.56-3.66-.55,2.29-2.83,5.48-.49,7.62,2.81,2.57,4.64-.58,6.48-1.86,1.67,2.07,1.37,3.09,6.13-.88.84-.71,1.73-1.68,2.53-2.48,2.38-2.36,3.47-3.8,2.18.73l-4.07,8.86A75.49,75.49,0,0,1,135,41.73l.77,1.3c3.05-.47,5.79-7.31,11.92-12.67,3.75-3.29,4.31-1.63,5.33-2.25-2.47-3-4.24,0-6.47-.06,1-2.23,3.12-8.26,3.15-10.54-.25-.61-1.15-2.27-6.14,2.7-1.35,1.35-3.8,4.56-5.66,4.73,1.18-2.29,6.19-8,6.37-9.18.16-.66-.3-1.43-1.34-.86-2.1,2.21-3.9,4.47-6,6.56-1.51,1.5-4.82,6.19-7,5.35-1.29-3.38,5.48-8.62,2.27-10.14a1.68,1.68,0,0,0-1.32-.15c-2.07.42-4.43,3.75-6.19,4.07,0-1.72,1.11-3.89-2-4.34-1.77-.25-3.21,1.34-4.47,2.53.86-1.6,4-4.33,2-5.11-1.67-.31-3.18,3.12-4.28,4.36-1.06,1.61-8.07,7.53-9.93,8ZM19.12,25.8c0-4.22,3.08-7,3.06-8.62-.08-.93-1.51-.88-2.91-.58-3.49.76-4.48.5-9.14,4.85C8.66,23,7,26.07,10.2,27c2.28.63,4.44-1.62,6.3-2.8.9,1.52.85,3.87,3.55,3.62,1.61-.16,3.22-1.87,4.73-2.84-.15,1.62-1.14,3-1.56,4.55-.74,2.81,1.25,3.91,2.34,2.31,1-1.4-.65-3.17,2.64-9,2.13-4.25,2.06-5.13,5-10,2.78-4.62,2.12-1.2,3.29-3.18.74-1.57-.08-3.24-1.66-2.74-1,.29-1.82,2.25-2.45,3.29-2.58,4.26-4.62,9.43-6.72,11-1.68,1.29-4.57,4.16-6.53,4.63Zm19.94-1.12c-1.13-2.95,4.71-4.57,1.56-7.61-1,.4-1,.85-1.95,1.74C37,18,35.5,16.68,32.11,20.45c-1.87,2.47-3.06,4.78-.78,6.54,2.51.82,3.7-1.2,6.06-2.43,1.7,2.22,1.89,3.91,7.56-.28,1.17-.86,2.55-1.66,3.6-2.49,1.26-1,2-1.81,3.42-2.86l1.85,2.69c-8,5.35-6.29,10.52.43,5.83,3-2.11,1.76-3.37,2-4.42,3-1.11,2.86-1.75,3.31-3.2-1.43.94-2.5.49-5,1.22-3-3.83-1.24-3.28,1.07-6.33-.8-1.25-1.51-2.24-3.66-.23-1.62,1.5-.42,2.19-3.84,4.75-1.53,1.16-7.51,6-9.08,5.44Zm37.66-6.49c-1-1-3.16-3.14-6.29-1C67,19.62,63.16,26.13,68,27.94c2.5.74,4.35-1.77,6.1-2.58.28,1.56,0,4.39,2.73,4,.82-1-.31-1.61-.43-3s2.73-7.49,5.64-10.77c1.83-2.34,5.71-7.52,3.28-8.93-2.86,3.09-5.88,8.67-8.62,11.53ZM2.35,12c.67,2.43,3.8,1.67,6.05,1.85-.46,2.69-10.79,17.56-5.51,19C3.38,31.9,3,30,4.77,26.12c1.05-2.3,6.1-12.58,8.3-13.51a21.71,21.71,0,0,1,7.61-1.35c-.24-2.93-4.33-1.39-6.42-1.46.69-3.32,6.61-4.69,2.59-7.87-1.22.53-2.3,2.94-3.36,4.59-2.44,3.76-1.86,4.14-4.67,4.72a23.15,23.15,0,0,1-3.58.41L3,11.79c-.75.1-.19-.13-.69.17ZM67.66,25.77c2.19.69,8-5.33,7.93-6.8-3.63-2.84-8.08,5.43-7.93,6.8ZM10.4,25.29c2.36,0,7.73-4.76,7.91-6.77-2.5,0-7.88,4.32-7.91,6.77Zm71.39,0c1.74-.42,7.11-5.14,7.55-6.77-2.5.26-7.33,4.42-7.55,6.77Zm15.82,0c2.5-.56,7.7-5,7.54-6.77-2.47.26-7.31,4.21-7.54,6.77Zm-65.28-.71c.94.64,5.06-2.67,5.55-4.69-2.05-.87-5.59,2.66-5.55,4.69ZM51.23,27c1.1-.22,3.36-1.63,3.31-3.06-.95.5-3.19,1.45-3.31,3.06Z" transform="translate(-1.39 -1.93)"/><path class="cls-2" d="M30,37.38a.48.48,0,0,1,.11-.32.43.43,0,0,1,.32-.13.41.41,0,0,1,.31.13.44.44,0,0,1,.12.32v1.79l1.74-2c.23-.26.44-.3.64-.13a.4.4,0,0,1,.12.31.59.59,0,0,1-.17.32l-1.52,1.64L33.26,41a.72.72,0,0,1,.19.35.38.38,0,0,1-.11.33q-.31.32-.69-.09l-1.83-2v1.81a.44.44,0,0,1-.12.32.4.4,0,0,1-.31.12.42.42,0,0,1-.32-.12.48.48,0,0,1-.11-.32Z" transform="translate(-1.39 -1.93)"/><path class="cls-2" d="M35.48,37.58a2.44,2.44,0,0,1,3.46,0,3,3,0,0,1,0,3.63,2.46,2.46,0,0,1-3.46,0,3,3,0,0,1,0-3.63Zm.66,3.08a1.39,1.39,0,0,0,2.14,0,2.36,2.36,0,0,0,0-2.54,1.41,1.41,0,0,0-2.14,0,2.36,2.36,0,0,0,0,2.54Z" transform="translate(-1.39 -1.93)"/><path class="cls-2" d="M44.67,39.72H42.4v1.69a.48.48,0,0,1-.11.32.42.42,0,0,1-.32.12.4.4,0,0,1-.31-.12.43.43,0,0,1-.11-.32v-4a.43.43,0,0,1,.11-.32.41.41,0,0,1,.31-.13.43.43,0,0,1,.32.13.48.48,0,0,1,.11.32V39h2.27V37.38a.43.43,0,0,1,.11-.32.39.39,0,0,1,.31-.13.43.43,0,0,1,.32.13.48.48,0,0,1,.11.32v4a.48.48,0,0,1-.11.32.42.42,0,0,1-.32.12.39.39,0,0,1-.31-.12.43.43,0,0,1-.11-.32Z" transform="translate(-1.39 -1.93)"/><path class="cls-2" d="M51.28,41.85H48.11v.6a.48.48,0,0,1-.11.32.43.43,0,0,1-.6,0,.47.47,0,0,1-.1-.32v-.94a.45.45,0,0,1,.1-.31.38.38,0,0,1,.29-.11h.2a10.1,10.1,0,0,0,.54-3.71c0-.3.14-.45.4-.45H51a.41.41,0,0,1,.32.13.48.48,0,0,1,.1.31v3.72h.25a.38.38,0,0,1,.29.11.5.5,0,0,1,.1.31v.94a.53.53,0,0,1-.1.32.38.38,0,0,1-.3.12.36.36,0,0,1-.3-.12.48.48,0,0,1-.11-.32Zm-.68-.76V37.7H49.22a10.18,10.18,0,0,1-.48,3.39Z" transform="translate(-1.39 -1.93)"/><path class="cls-2" d="M54.87,40.36l2.3-3.18a.48.48,0,0,1,.41-.25c.27,0,.41.15.41.45v4a.48.48,0,0,1-.11.32.4.4,0,0,1-.31.12.39.39,0,0,1-.33-.13.45.45,0,0,1-.11-.31v-3L54.82,41.6a.53.53,0,0,1-.4.25.38.38,0,0,1-.3-.12.44.44,0,0,1-.11-.32v-4a.48.48,0,0,1,.11-.32.41.41,0,0,1,.32-.13.43.43,0,0,1,.32.13.48.48,0,0,1,.11.32Z" transform="translate(-1.39 -1.93)"/><path class="cls-2" d="M63.48,36.93a.45.45,0,0,1,.3.1.41.41,0,0,1,0,.56.41.41,0,0,1-.3.11H62.22v3.71a.48.48,0,0,1-.11.32.49.49,0,0,1-.64,0,.48.48,0,0,1-.11-.32V37.7H60.1a.4.4,0,0,1-.29-.11.39.39,0,0,1,0-.56.44.44,0,0,1,.29-.1Z" transform="translate(-1.39 -1.93)"/><path class="cls-2" d="M65.6,37.38a.48.48,0,0,1,.11-.32.44.44,0,0,1,.32-.13h2.41a.42.42,0,0,1,.3.11.38.38,0,0,1,.11.28.37.37,0,0,1-.11.27.42.42,0,0,1-.3.11h-2v1.24H68a.5.5,0,0,1,.31.1.38.38,0,0,1,.11.28.39.39,0,0,1-.11.28.45.45,0,0,1-.31.1H66.45v1.39h2.06a.42.42,0,0,1,.3.1.41.41,0,0,1,0,.56.47.47,0,0,1-.3.1H66a.39.39,0,0,1-.32-.13.41.41,0,0,1-.12-.31Z" transform="translate(-1.39 -1.93)"/><path class="cls-2" d="M70.74,37.49a.45.45,0,0,1,.39-.5,6,6,0,0,1,1.1-.09,2.28,2.28,0,0,1,1.38.38,1.4,1.4,0,0,1,.5,1.19,1.48,1.48,0,0,1-.53,1.25,2.13,2.13,0,0,1-1.37.42,3.29,3.29,0,0,1-.62,0v1.31a.48.48,0,0,1-.11.32.42.42,0,0,1-.32.12.39.39,0,0,1-.31-.12.43.43,0,0,1-.11-.32Zm2.47,1c0-.56-.33-.84-1-.84a4.4,4.4,0,0,0-.62,0v1.68a4.24,4.24,0,0,0,.57,0C72.86,39.4,73.21,39.1,73.21,38.49Z" transform="translate(-1.39 -1.93)"/><path class="cls-2" d="M77,38.11a2.06,2.06,0,0,0-.37,1.27,1.93,1.93,0,0,0,.4,1.3,1.28,1.28,0,0,0,1,.48,2,2,0,0,0,1-.31c.24-.14.42-.12.54,0a.33.33,0,0,1,.05.29.5.5,0,0,1-.22.31,2.37,2.37,0,0,1-1.45.42,2.1,2.1,0,0,1-1.69-.68,2.78,2.78,0,0,1-.57-1.85,2.65,2.65,0,0,1,.61-1.84A2.11,2.11,0,0,1,78,36.86a2.3,2.3,0,0,1,1.32.33.38.38,0,0,1,.17.52c-.08.18-.26.22-.54.11a2.71,2.71,0,0,0-.94-.19A1.24,1.24,0,0,0,77,38.11Z" transform="translate(-1.39 -1.93)"/><path class="cls-2" d="M81.53,37.38a.43.43,0,0,1,.11-.32.41.41,0,0,1,.31-.13.43.43,0,0,1,.32.13.48.48,0,0,1,.11.32v1.79l1.75-2c.22-.26.44-.3.63-.13a.37.37,0,0,1,.12.31.53.53,0,0,1-.17.32l-1.52,1.64L84.82,41a.64.64,0,0,1,.19.35.38.38,0,0,1-.11.33q-.32.32-.69-.09l-1.83-2v1.81a.48.48,0,0,1-.11.32.42.42,0,0,1-.32.12.4.4,0,0,1-.31-.12.43.43,0,0,1-.11-.32Z" transform="translate(-1.39 -1.93)"/><path class="cls-2" d="M87.59,40.36l2.3-3.18a.49.49,0,0,1,.41-.25c.27,0,.41.15.41.45v4a.48.48,0,0,1-.11.32.39.39,0,0,1-.31.12.4.4,0,0,1-.33-.13.45.45,0,0,1-.11-.31v-3L87.54,41.6a.52.52,0,0,1-.4.25.38.38,0,0,1-.3-.12.44.44,0,0,1-.11-.32v-4a.48.48,0,0,1,.11-.32.41.41,0,0,1,.32-.13.43.43,0,0,1,.32.13.48.48,0,0,1,.11.32Z" transform="translate(-1.39 -1.93)"/><path class="cls-2" d="M93.77,40.36l2.3-3.18a.5.5,0,0,1,.41-.25c.27,0,.41.15.41.45v4a.48.48,0,0,1-.11.32.46.46,0,0,1-.63,0,.41.41,0,0,1-.11-.31v-3L93.72,41.6a.52.52,0,0,1-.4.25.38.38,0,0,1-.3-.12.44.44,0,0,1-.1-.32v-4a.47.47,0,0,1,.1-.32.46.46,0,0,1,.64,0,.48.48,0,0,1,.11.32Zm.42-3.87a1,1,0,0,1-.44-.33c-.13-.17-.13-.31,0-.43s.28-.1.46.07a1,1,0,0,0,1.32,0c.17-.17.32-.2.46-.08s.13.25,0,.43a1,1,0,0,1-.44.33,1.59,1.59,0,0,1-.68.13A1.65,1.65,0,0,1,94.19,36.49Z" transform="translate(-1.39 -1.93)"/><path class="cls-2" d="M105.5,41.85h-3.17v.6a.48.48,0,0,1-.11.32.44.44,0,0,1-.6,0,.47.47,0,0,1-.1-.32v-.94a.45.45,0,0,1,.1-.31.38.38,0,0,1,.28-.11h.21a10.1,10.1,0,0,0,.54-3.71c0-.3.14-.45.4-.45h2.2a.43.43,0,0,1,.32.13.48.48,0,0,1,.1.31v3.72h.25a.38.38,0,0,1,.29.11.5.5,0,0,1,.1.31v.94a.53.53,0,0,1-.1.32.38.38,0,0,1-.3.12.36.36,0,0,1-.3-.12.48.48,0,0,1-.11-.32Zm-.68-.76V37.7h-1.38a10.18,10.18,0,0,1-.48,3.39Z" transform="translate(-1.39 -1.93)"/><path class="cls-2" d="M108.63,37.58a2.43,2.43,0,0,1,3.45,0,3,3,0,0,1,0,3.63,2.45,2.45,0,0,1-3.45,0,3,3,0,0,1,0-3.63Zm.66,3.08a1.38,1.38,0,0,0,2.13,0,2.31,2.31,0,0,0,0-2.54,1.4,1.4,0,0,0-2.13,0,2.31,2.31,0,0,0,0,2.54Z" transform="translate(-1.39 -1.93)"/><path class="cls-2" d="M117,39.51l1.43-2.31a.48.48,0,0,1,.42-.27.32.32,0,0,1,.29.13.46.46,0,0,1,.11.32v4a.48.48,0,0,1-.11.32.42.42,0,0,1-.32.12.4.4,0,0,1-.31-.12.44.44,0,0,1-.12-.32V38.52l-1,1.68a.44.44,0,0,1-.39.25.46.46,0,0,1-.4-.25l-1.05-1.65v2.86c0,.29-.13.44-.4.44s-.4-.15-.4-.44v-4a.5.5,0,0,1,.11-.34.4.4,0,0,1,.29-.11.51.51,0,0,1,.44.28Z" transform="translate(-1.39 -1.93)"/></svg>